<svg id="Icons" height="512" viewBox="0 0 74 74" width="512" xmlns="http://www.w3.org/2000/svg"><path d="m37.021 55c-12.943 0-25.505-6.153-34.791-17.362a1 1 0 0 1 0-1.276c9.276-11.197 21.624-17.362 34.77-17.362s25.494 6.167 34.77 17.364a1 1 0 0 1 0 1.277c-.717.863-1.433 1.679-2.129 2.423a1 1 0 1 1 -1.461-1.364c.495-.53 1-1.1 1.513-1.7-8.825-10.326-20.405-16-32.693-16s-23.868 5.673-32.693 16c10.822 12.653 26.05 18.3 40.893 15.132a39.976 39.976 0 0 0 6.548-1.99c.921-.369 1.772-.745 2.6-1.15a1 1 0 0 1 .878 1.8c-.875.427-1.77.822-2.738 1.21a41.853 41.853 0 0 1 -6.874 2.089 41.082 41.082 0 0 1 -8.593.909z"/><path d="m60.911 47.33a1 1 0 0 1 -.563-1.827c.8-.546 1.591-1.129 2.406-1.783a1 1 0 0 1 1.252 1.56c-.845.678-1.7 1.309-2.534 1.877a1 1 0 0 1 -.561.173z"/><path d="m37 54.987a17.987 17.987 0 1 1 17.987-17.987 18.007 18.007 0 0 1 -17.987 17.987zm0-33.974a15.987 15.987 0 1 0 15.987 15.987 16.005 16.005 0 0 0 -15.987-15.987z"/><path d="m42.3 42.515a1 1 0 0 1 -.707-1.707l3.807-3.808-3.809-3.808a1 1 0 0 1 1.409-1.414l4.516 4.515a1 1 0 0 1 0 1.414l-4.516 4.515a1 1 0 0 1 -.7.293z"/><path d="m31.705 42.515a1 1 0 0 1 -.705-.293l-4.516-4.515a1 1 0 0 1 0-1.414l4.516-4.515a1 1 0 0 1 1.414 1.414l-3.814 3.808 3.809 3.808a1 1 0 0 1 -.707 1.707z"/><path d="m35.251 45.5a1 1 0 0 1 -.975-1.227l3.5-15a1 1 0 0 1 1.948.454l-3.5 15a1 1 0 0 1 -.973.773z"/></svg>